<svg width="50" height="50" viewBox="0 0 50 50" fill="none" xmlns="http://www.w3.org/2000/svg">
<path d="M49 17.8902C44.7564 17.8902 42.1299 14.3297 42.1299 11.0304C42.1299 9.84142 42.4453 8.69005 43.0669 7.6085C43.3423 7.12998 43.1777 6.51963 42.6997 6.24375L32.2993 0.243749C32.0688 0.111429 31.7959 0.0747987 31.5405 0.144139C31.2842 0.212989 31.0659 0.380959 30.9336 0.610939C29.6997 2.75205 27.4814 4.03037 25 4.03037C22.5186 4.03037 20.3003 2.75205 19.0664 0.610939C18.9341 0.380959 18.7158 0.212989 18.4595 0.144139C18.2022 0.0747987 17.9297 0.111429 17.7007 0.243749L7.3003 6.24375C6.82227 6.51963 6.65772 7.12998 6.93311 7.6085C7.55469 8.69004 7.87012 9.84141 7.87012 11.0304C7.87012 14.3297 5.24366 17.8902 1 17.8902C0.44775 17.8902 0 18.338 0 18.8902V24.8902C0 25.4425 0.44775 25.8902 1 25.8902H9C9.55225 25.8902 10 25.4425 10 24.8902C10 16.6192 16.729 9.89024 25 9.89024C33.271 9.89024 40 16.6192 40 24.8902C40 25.4425 40.4477 25.8902 41 25.8902H49C49.5523 25.8902 50 25.4425 50 24.8902V18.8902C50 18.338 49.5523 17.8902 49 17.8902ZM48 23.8902H41.9707C41.4512 14.9801 34.0381 7.89024 25 7.89024C15.9619 7.89024 8.54883 14.9801 8.0293 23.8902H2V19.8341C6.42236 19.3365 9.87012 15.5782 9.87012 11.0304C9.87012 9.81261 9.61817 8.62999 9.11963 7.50304L17.8809 2.44884C19.5381 4.70861 22.1333 6.03038 25 6.03038C27.8667 6.03038 30.4619 4.7086 32.1191 2.44884L40.8804 7.50304C40.3818 8.62999 40.1299 9.81261 40.1299 11.0304C40.1299 15.5782 43.5776 19.3365 48 19.8341V23.8902Z" fill="white"/>
<path d="M47.36 40.5203C46.5 39.6602 45.48 38.9902 44.38 38.5502C45.37 37.6302 46 36.3403 46 34.8903C46 32.1302 43.76 29.8903 41 29.8903C38.24 29.8903 36 32.1302 36 34.8903C36 36.3502 36.64 37.6503 37.63 38.5602C35.62 39.3802 33.95 40.9102 32.96 42.8602C32.69 42.5002 32.4 42.1503 32.07 41.8303C31.1 40.8502 29.95 40.1002 28.7 39.6002C29.85 38.6902 30.66 37.3802 30.91 35.8702C30.94 35.8802 30.9699 35.8902 30.9999 35.8903C31.5432 35.8908 32 35.4306 32 34.8903V29.8903C32 27.6802 30.21 25.8903 28 25.8903H22C20.65 25.8903 19.5 26.7902 19.13 28.0203C17.9 28.3903 17 29.5402 17 30.8903V33.9603C17 34.5002 17.26 35.0002 17.69 35.3203C18.08 35.6002 18.58 35.6802 19.04 35.5803C19.19 36.9102 19.79 38.1602 20.76 39.1403C20.93 39.3102 21.1 39.4603 21.29 39.6002C20.04 40.1002 18.9 40.8502 17.94 41.8203C17.61 42.1503 17.32 42.5002 17.04 42.8602C16.05 40.9102 14.38 39.3803 12.37 38.5602C13.36 37.6503 14 36.3502 14 34.8903C14 32.1303 11.76 29.8903 8.99999 29.8903C6.23998 29.8903 3.99999 32.1303 3.99999 34.8903C3.99999 36.3403 4.62999 37.6303 5.61999 38.5502C4.52001 39.0002 3.49999 39.6602 2.63 40.5303C0.92999 42.2302 0 44.4902 0 46.8903V48.8903C0 49.4403 0.45001 49.8903 1 49.8903H21C21.55 49.8903 22 49.4403 22 48.8903C22 48.3403 21.55 47.8903 21 47.8903H17.06C17.28 46.1303 18.07 44.5003 19.35 43.2302C20.85 41.7202 22.86 40.8903 25 40.8903C27.14 40.8903 29.15 41.7202 30.66 43.2402C31.93 44.5103 32.72 46.1303 32.94 47.8903H29C28.45 47.8903 28 48.3403 28 48.8903C28 49.4403 28.45 49.8903 29 49.8903H49C49.55 49.8903 50 49.4403 50 48.8903V46.8903C50 44.4902 49.07 42.2302 47.36 40.5203ZM8.99999 31.8903C10.65 31.8903 12 33.2402 12 34.8903C12 36.5403 10.65 37.8903 8.99999 37.8903C7.34997 37.8903 5.99999 36.5402 5.99999 34.8903C5.99999 33.2403 7.34997 31.8903 8.99999 31.8903ZM15.05 47.8903H1.99999V46.8903C1.99999 45.0303 2.72997 43.2703 4.03997 41.9402C5.38 40.6202 7.14001 39.8903 8.99999 39.8903C12.16 39.8903 14.94 42.0702 15.74 45.0903C15.38 45.9802 15.14 46.9202 15.05 47.8903ZM19 33.4802V30.8902C19 30.3403 19.45 29.8902 20 29.8902C20.55 29.8902 21 29.4402 21 28.8902C21 28.3403 21.45 27.8902 22 27.8902H28C29.1 27.8902 30 28.7902 30 29.8902V32.8202C28.95 32.2102 27.75 31.8902 26.5 31.8902H26.24C24.93 31.8902 23.62 31.5802 22.45 31.0002C22.21 30.8802 21.94 30.8602 21.68 30.9402C21.43 31.0303 21.22 31.2103 21.11 31.4402C20.65 32.3502 19.91 33.0602 19 33.4802ZM25 38.8903C23.93 38.8903 22.93 38.4702 22.17 37.7302C21.42 36.9603 21 35.9603 21 34.8903V34.6102C21.54 34.2003 22.01 33.7202 22.4 33.1602C23.62 33.6403 24.93 33.8903 26.24 33.8903H26.5C27.4 33.8903 28.24 34.1403 29 34.5803V34.8903C29 37.1002 27.21 38.8903 25 38.8903ZM41 31.8903C42.65 31.8903 44 33.2402 44 34.8903C44 36.5403 42.65 37.8903 41 37.8903C39.35 37.8903 38 36.5402 38 34.8903C38 33.2403 39.35 31.8903 41 31.8903ZM48 47.8903H34.95C34.86 46.9202 34.62 45.9802 34.26 45.0903C35.06 42.0602 37.84 39.8903 41 39.8903C42.86 39.8903 44.62 40.6202 45.95 41.9302C47.27 43.2703 48 45.0303 48 46.8903V47.8903Z" fill="white"/>
<path d="M23 23.8903H27C27.5523 23.8903 28 23.4425 28 22.8903V17.8903H29C29.4043 17.8903 29.769 17.6466 29.9238 17.2731C30.0786 16.899 29.9932 16.4694 29.707 16.1832L25.707 12.1832C25.3164 11.7926 24.6836 11.7926 24.293 12.1832L20.293 16.1832C20.0068 16.4694 19.9214 16.899 20.0762 17.2731C20.231 17.6466 20.5957 17.8903 21 17.8903H22V22.8903C22 23.4425 22.4478 23.8903 23 23.8903ZM25 14.3043L26.6489 15.9537C26.27 16.0958 26 16.4615 26 16.8902V21.8902H24V16.8902C24 16.4615 23.73 16.0958 23.3511 15.9537L25 14.3043Z" fill="white"/>
<path d="M25.227 47.916C24.6891 47.7908 24.1515 48.1253 24.0263 48.6632C23.901 49.2011 24.2355 49.7387 24.7734 49.8639C25.3113 49.9892 25.8489 49.6547 25.9742 49.1168C26.0994 48.5789 25.7649 48.0413 25.227 47.916Z" fill="white"/>
</svg>
