<svg width="64" height="64" viewBox="0 0 64 64" fill="none" xmlns="http://www.w3.org/2000/svg">
<circle cx="32" cy="32" r="32" fill="#FAD009"/>
<path d="M34.5551 19.8858C34.5894 19.7548 34.6495 19.6318 34.7319 19.5243C34.8143 19.4167 34.9174 19.3267 35.035 19.2594C35.1527 19.1922 35.2826 19.1491 35.4171 19.1327C35.5516 19.1164 35.688 19.127 35.8184 19.164C37.7408 19.6796 39.4937 20.6919 40.901 22.0993C42.3084 23.5066 43.3207 25.2595 43.8363 27.1819C43.8733 27.3123 43.8839 27.4487 43.8676 27.5832C43.8512 27.7177 43.8081 27.8476 43.7409 27.9653C43.6736 28.0829 43.5836 28.186 43.476 28.2684C43.3685 28.3508 43.2455 28.4109 43.1145 28.4452C43.0265 28.4707 42.9353 28.4837 42.8438 28.4839C42.6161 28.4826 42.3954 28.406 42.2158 28.2661C42.0363 28.1262 41.9081 27.9308 41.8512 27.7105C41.4223 26.1407 40.5916 24.71 39.441 23.5593C38.2903 22.4087 36.8596 21.578 35.2898 21.1491C35.1576 21.1162 35.0333 21.0571 34.9243 20.9753C34.8153 20.8935 34.7238 20.7907 34.6553 20.6729C34.5868 20.5551 34.5426 20.4247 34.5254 20.2895C34.5082 20.1543 34.5183 20.0171 34.5551 19.8858ZM34.2199 25.1323C35.0925 25.3712 35.8877 25.8332 36.5274 26.4729C37.1671 27.1126 37.6291 27.9078 37.868 28.7804C37.9228 29.0019 38.0505 29.1985 38.2305 29.3387C38.4105 29.479 38.6324 29.5547 38.8605 29.5538C38.948 29.5547 39.035 29.5416 39.1184 29.5151C39.2506 29.4823 39.3749 29.4232 39.4839 29.3414C39.5929 29.2595 39.6844 29.1567 39.7529 29.0389C39.8214 28.9211 39.8656 28.7907 39.8828 28.6555C39.9 28.5203 39.8899 28.3831 39.8531 28.2519C39.5276 27.0266 38.884 25.9092 37.9876 25.0127C37.0911 24.1163 35.9737 23.4727 34.7484 23.1472C34.6139 23.0982 34.4707 23.0777 34.3278 23.0871C34.185 23.0965 34.0456 23.1355 33.9187 23.2017C33.7917 23.2679 33.6799 23.3598 33.5905 23.4716C33.501 23.5833 33.4357 23.7125 33.3989 23.8508C33.3621 23.9892 33.3544 24.1337 33.3765 24.2751C33.3986 24.4166 33.4499 24.5519 33.5271 24.6724C33.6043 24.793 33.7058 24.8961 33.8251 24.9753C33.9444 25.0545 34.0788 25.108 34.2199 25.1323ZM44.8547 37.5718C44.6266 39.3125 43.7742 40.9113 42.4559 42.0707C41.1376 43.2302 39.4431 43.8714 37.6875 43.8753C27.4523 43.8753 19.125 35.548 19.125 25.3128C19.1289 23.5572 19.7701 21.8627 20.9296 20.5444C22.089 19.2261 23.6878 18.3737 25.4285 18.1456C25.8723 18.0964 26.3202 18.1898 26.7072 18.4123C27.0943 18.6349 27.4004 18.9749 27.5812 19.3831L30.1723 25.4288C30.3067 25.7426 30.3606 26.085 30.329 26.425C30.2975 26.7649 30.1816 27.0915 29.9918 27.3753L27.852 30.6495C28.8209 32.616 30.4175 34.2035 32.3895 35.1612L35.625 33.0085C35.9085 32.8174 36.2359 32.7018 36.5765 32.6724C36.9171 32.6431 37.2595 32.7011 37.5715 32.8409L43.6172 35.419C44.0254 35.5998 44.3654 35.906 44.5879 36.2931C44.8105 36.6801 44.9039 37.128 44.8547 37.5718ZM42.8051 37.314L36.7594 34.7358L33.5367 36.8886C33.2402 37.0846 32.898 37.2007 32.5434 37.2255C32.1889 37.2504 31.8339 37.1831 31.5129 37.0304C29.1113 35.8687 27.1687 33.9351 25.9957 31.539C25.8411 31.2191 25.7717 30.8647 25.7942 30.5101C25.8168 30.1555 25.9306 29.8128 26.1246 29.5151L28.2773 26.2409L25.6863 20.1952C24.4423 20.3551 23.2992 20.963 22.4711 21.905C21.643 22.847 21.1867 24.0586 21.1875 25.3128C21.1909 29.6878 22.9304 33.8827 26.024 36.9763C29.1176 40.0699 33.3125 41.8094 37.6875 41.8128C38.9417 41.8136 40.1533 41.3573 41.0953 40.5292C42.0373 39.701 42.6452 38.558 42.8051 37.314Z" fill="#1D1D1D"/>
</svg>
